<?xml version="1.0" standalone="no"?><!DOCTYPE svg PUBLIC "-//W3C//DTD SVG 1.1//EN" "http://www.w3.org/Graphics/SVG/1.1/DTD/svg11.dtd"><svg t="1689819539811" class="icon" viewBox="0 0 1024 1024" version="1.1" xmlns="http://www.w3.org/2000/svg" p-id="4802" xmlns:xlink="http://www.w3.org/1999/xlink" width="200" height="200"><path d="M0.597 511.275a511.275 511.275 0 1 0 1022.55 0C1023.147 228.907 794.24 0 511.872 0S0.597 228.907 0.597 511.275z" fill="#373740" p-id="4803"></path><path d="M1011.925 407.979C964.864 174.848 758.315 0 511.872 0 229.675 0 0.597 229.035 0.597 511.275c0 123.733 43.947 236.202 116.566 324.138a615.04 615.04 0 0 0 292.48 74.667c300.629 0 550.101-216.79 602.282-502.101z" fill="#464650" p-id="4804"></path><path d="M614.144 387.541a102.57 102.57 0 0 1-102.272 102.272 102.57 102.57 0 0 1-102.23-102.272c0-112.469-150.314-155.434-206.549-57.258a361.6 361.6 0 0 0-48.085 201.429c10.24 177.92 153.387 323.115 332.33 335.403C696.96 881.45 870.785 715.776 870.785 510.25a360.363 360.363 0 0 0-49.067-180.992c-58.282-96.128-207.573-54.187-207.573 58.282z" fill="#FFFFFF" p-id="4805"></path><path d="M246.016 429.483a51.115 51.115 0 1 0 102.272 0 51.115 51.115 0 0 0-102.272 0z m429.483 0a51.115 51.115 0 1 0 102.229 0 51.115 51.115 0 0 0-102.23 0z" fill="#373740" p-id="4806"></path><path d="M579.37 511.275H439.297a42.112 42.112 0 0 1-41.941-41.942c0-23.466 19.413-41.898 41.941-41.898h140.075c23.509 0 41.941 19.413 41.941 41.898 0 22.528-19.456 41.942-41.941 41.942z" fill="#F44444" p-id="4807"></path></svg>