<?xml version="1.0" standalone="no"?><!DOCTYPE svg PUBLIC "-//W3C//DTD SVG 1.1//EN" "http://www.w3.org/Graphics/SVG/1.1/DTD/svg11.dtd"><svg t="1689924844982" class="icon" viewBox="0 0 1024 1024" version="1.1" xmlns="http://www.w3.org/2000/svg" p-id="1541" width="18" height="18" xmlns:xlink="http://www.w3.org/1999/xlink"><path d="M377.8 832.3c-12.5 0-25-4.8-34.5-14.3L76.5 551.2c-19.1-19.1-19.1-50 0-69.1 19.1-19.1 50-19.1 69.1 0L412.4 749c19.1 19.1 19.1 50 0 69.1-9.6 9.5-22.1 14.2-34.6 14.2z" fill="#333333" p-id="1542"></path><path d="M377.8 832.3c-12.5 0-25-4.8-34.5-14.3-19.1-19.1-19.1-50 0-69.1L877 215.3c19.1-19.1 50-19.1 69.1 0s19.1 50 0 69.1L412.4 818c-9.6 9.6-22.1 14.3-34.6 14.3z" fill="#333333" p-id="1543"></path></svg>